<mxfile host="app.diagrams.net" modified="2024-01-23T08:54:34.037Z" agent="Mozilla/5.0 (Windows NT 10.0; Win64; x64) AppleWebKit/537.36 (KHTML, like Gecko) Chrome/107.0.0.0 Safari/537.36" etag="hS-VeXndMckU7-dUYh-e" version="22.1.21" type="github">
  <diagram name="第 1 页" id="eo5u3TdKTbHSoBQuBbNW">
    <mxGraphModel dx="1434" dy="796" grid="1" gridSize="10" guides="1" tooltips="1" connect="1" arrows="1" fold="1" page="1" pageScale="1" pageWidth="827" pageHeight="1169" math="0" shadow="0">
      <root>
        <mxCell id="0" />
        <mxCell id="1" parent="0" />
        <mxCell id="-BZDDZaDFFfkxx9SQDAJ-60" value="" style="rounded=0;whiteSpace=wrap;html=1;strokeColor=#1298FF;strokeWidth=2;" vertex="1" parent="1">
          <mxGeometry x="17" y="180" width="810" height="180" as="geometry" />
        </mxCell>
        <mxCell id="-BZDDZaDFFfkxx9SQDAJ-61" value="&lt;font size=&quot;1&quot; style=&quot;&quot;&gt;&lt;b style=&quot;font-size: 17px;&quot;&gt;前端应用&lt;/b&gt;&lt;/font&gt;" style="text;html=1;strokeColor=none;fillColor=none;align=center;verticalAlign=middle;whiteSpace=wrap;rounded=0;" vertex="1" parent="1">
          <mxGeometry x="40" y="220" width="17" height="90" as="geometry" />
        </mxCell>
        <mxCell id="-BZDDZaDFFfkxx9SQDAJ-62" value="" style="rounded=0;whiteSpace=wrap;html=1;dashed=1;dashPattern=12 12;strokeColor=#663300;strokeWidth=2;perimeterSpacing=1;" vertex="1" parent="1">
          <mxGeometry x="77" y="190" width="720" height="160" as="geometry" />
        </mxCell>
        <mxCell id="-BZDDZaDFFfkxx9SQDAJ-63" value="&lt;span style=&quot;font-size: 17px;&quot;&gt;系统管理&lt;/span&gt;" style="rounded=1;whiteSpace=wrap;html=1;fillColor=#f8cecc;strokeColor=#b85450;" vertex="1" parent="1">
          <mxGeometry x="87" y="210" width="100" height="50" as="geometry" />
        </mxCell>
        <mxCell id="-BZDDZaDFFfkxx9SQDAJ-64" value="&lt;span style=&quot;font-size: 17px;&quot;&gt;运维日志&lt;/span&gt;" style="rounded=1;whiteSpace=wrap;html=1;fillColor=#f8cecc;strokeColor=#b85450;" vertex="1" parent="1">
          <mxGeometry x="87" y="280" width="100" height="50" as="geometry" />
        </mxCell>
        <mxCell id="-BZDDZaDFFfkxx9SQDAJ-65" value="&lt;span style=&quot;font-size: 17px;&quot;&gt;用户管理&lt;/span&gt;" style="rounded=1;whiteSpace=wrap;html=1;fillColor=#f8cecc;strokeColor=#b85450;" vertex="1" parent="1">
          <mxGeometry x="198" y="210" width="100" height="50" as="geometry" />
        </mxCell>
        <mxCell id="-BZDDZaDFFfkxx9SQDAJ-66" value="&lt;span style=&quot;font-size: 17px;&quot;&gt;菜单管理&lt;/span&gt;" style="rounded=1;whiteSpace=wrap;html=1;fillColor=#f8cecc;strokeColor=#b85450;" vertex="1" parent="1">
          <mxGeometry x="198" y="280" width="100" height="50" as="geometry" />
        </mxCell>
        <mxCell id="-BZDDZaDFFfkxx9SQDAJ-67" value="" style="edgeStyle=orthogonalEdgeStyle;rounded=0;orthogonalLoop=1;jettySize=auto;html=1;" edge="1" parent="1" source="-BZDDZaDFFfkxx9SQDAJ-72" target="-BZDDZaDFFfkxx9SQDAJ-110">
          <mxGeometry relative="1" as="geometry">
            <Array as="points">
              <mxPoint x="537" y="250" />
              <mxPoint x="381" y="250" />
            </Array>
          </mxGeometry>
        </mxCell>
        <mxCell id="-BZDDZaDFFfkxx9SQDAJ-68" style="edgeStyle=orthogonalEdgeStyle;rounded=0;orthogonalLoop=1;jettySize=auto;html=1;entryX=0.5;entryY=0;entryDx=0;entryDy=0;" edge="1" parent="1" source="-BZDDZaDFFfkxx9SQDAJ-72" target="-BZDDZaDFFfkxx9SQDAJ-111">
          <mxGeometry relative="1" as="geometry">
            <Array as="points">
              <mxPoint x="537" y="250" />
              <mxPoint x="449" y="250" />
            </Array>
          </mxGeometry>
        </mxCell>
        <mxCell id="-BZDDZaDFFfkxx9SQDAJ-69" style="edgeStyle=orthogonalEdgeStyle;rounded=0;orthogonalLoop=1;jettySize=auto;html=1;" edge="1" parent="1" source="-BZDDZaDFFfkxx9SQDAJ-72" target="-BZDDZaDFFfkxx9SQDAJ-112">
          <mxGeometry relative="1" as="geometry">
            <Array as="points">
              <mxPoint x="537" y="250" />
              <mxPoint x="517" y="250" />
            </Array>
          </mxGeometry>
        </mxCell>
        <mxCell id="-BZDDZaDFFfkxx9SQDAJ-70" style="edgeStyle=orthogonalEdgeStyle;rounded=0;orthogonalLoop=1;jettySize=auto;html=1;entryX=0.5;entryY=0;entryDx=0;entryDy=0;" edge="1" parent="1">
          <mxGeometry relative="1" as="geometry">
            <mxPoint x="537.0588235294117" y="240" as="sourcePoint" />
            <mxPoint x="687" y="300" as="targetPoint" />
            <Array as="points">
              <mxPoint x="537" y="250" />
              <mxPoint x="687" y="250" />
            </Array>
          </mxGeometry>
        </mxCell>
        <mxCell id="-BZDDZaDFFfkxx9SQDAJ-71" style="edgeStyle=orthogonalEdgeStyle;rounded=0;orthogonalLoop=1;jettySize=auto;html=1;entryX=0.5;entryY=0;entryDx=0;entryDy=0;" edge="1" parent="1" source="-BZDDZaDFFfkxx9SQDAJ-72" target="-BZDDZaDFFfkxx9SQDAJ-113">
          <mxGeometry relative="1" as="geometry">
            <Array as="points">
              <mxPoint x="537" y="250" />
              <mxPoint x="596" y="250" />
            </Array>
          </mxGeometry>
        </mxCell>
        <mxCell id="-BZDDZaDFFfkxx9SQDAJ-72" value="&lt;font style=&quot;font-size: 17px;&quot;&gt;系统报表&lt;/font&gt;" style="rounded=1;whiteSpace=wrap;html=1;fillColor=#f8cecc;strokeColor=#b85450;" vertex="1" parent="1">
          <mxGeometry x="484.5" y="200" width="110" height="30" as="geometry" />
        </mxCell>
        <mxCell id="-BZDDZaDFFfkxx9SQDAJ-73" value="" style="rounded=0;whiteSpace=wrap;html=1;strokeColor=#1298FF;strokeWidth=2;" vertex="1" parent="1">
          <mxGeometry x="17" y="370" width="810" height="446" as="geometry" />
        </mxCell>
        <mxCell id="-BZDDZaDFFfkxx9SQDAJ-74" value="&lt;font size=&quot;1&quot; style=&quot;&quot;&gt;&lt;b style=&quot;font-size: 17px;&quot;&gt;后端处理架构&lt;/b&gt;&lt;/font&gt;" style="text;html=1;strokeColor=none;fillColor=none;align=center;verticalAlign=middle;whiteSpace=wrap;rounded=0;" vertex="1" parent="1">
          <mxGeometry x="40" y="516" width="17" height="130" as="geometry" />
        </mxCell>
        <mxCell id="-BZDDZaDFFfkxx9SQDAJ-75" value="&lt;div style=&quot;&quot;&gt;&lt;br&gt;&lt;/div&gt;" style="rounded=0;whiteSpace=wrap;html=1;align=left;fillColor=#ffe6cc;strokeColor=#d79b00;" vertex="1" parent="1">
          <mxGeometry x="67" y="390" width="80" height="400" as="geometry" />
        </mxCell>
        <mxCell id="-BZDDZaDFFfkxx9SQDAJ-76" value="&lt;font style=&quot;font-size: 21px;&quot;&gt;数据运营管理一体化&lt;/font&gt;" style="text;html=1;strokeColor=none;fillColor=none;align=center;verticalAlign=middle;whiteSpace=wrap;rounded=0;" vertex="1" parent="1">
          <mxGeometry x="77" y="480" width="40" height="190" as="geometry" />
        </mxCell>
        <mxCell id="-BZDDZaDFFfkxx9SQDAJ-77" value="&lt;font style=&quot;font-size: 16px;&quot;&gt;数据开放、系统日志管理&lt;/font&gt;" style="rounded=0;whiteSpace=wrap;html=1;" vertex="1" parent="1">
          <mxGeometry x="187" y="390" width="600" height="40" as="geometry" />
        </mxCell>
        <mxCell id="-BZDDZaDFFfkxx9SQDAJ-78" value="" style="shape=flexArrow;endArrow=classic;startArrow=classic;html=1;rounded=0;strokeColor=#FF9999;strokeWidth=3;" edge="1" parent="1">
          <mxGeometry width="100" height="100" relative="1" as="geometry">
            <mxPoint x="680.4163667820068" y="330" as="sourcePoint" />
            <mxPoint x="680.92" y="390" as="targetPoint" />
          </mxGeometry>
        </mxCell>
        <mxCell id="-BZDDZaDFFfkxx9SQDAJ-79" value="" style="rounded=0;whiteSpace=wrap;html=1;" vertex="1" parent="1">
          <mxGeometry x="187" y="460" width="600" height="160" as="geometry" />
        </mxCell>
        <mxCell id="-BZDDZaDFFfkxx9SQDAJ-80" value="&lt;font size=&quot;1&quot; style=&quot;&quot;&gt;&lt;b style=&quot;font-size: 17px;&quot;&gt;公共配置&lt;/b&gt;&lt;/font&gt;" style="text;html=1;strokeColor=none;fillColor=none;align=center;verticalAlign=middle;whiteSpace=wrap;rounded=0;" vertex="1" parent="1">
          <mxGeometry x="207" y="475" width="17" height="130" as="geometry" />
        </mxCell>
        <mxCell id="-BZDDZaDFFfkxx9SQDAJ-81" value="" style="rounded=0;whiteSpace=wrap;html=1;dashed=1;strokeWidth=2;strokeColor=#0000FF;" vertex="1" parent="1">
          <mxGeometry x="257" y="470" width="520" height="60" as="geometry" />
        </mxCell>
        <mxCell id="-BZDDZaDFFfkxx9SQDAJ-82" value="&lt;font style=&quot;font-size: 15px;&quot;&gt;&lt;b&gt;config配置&lt;/b&gt;&lt;/font&gt;" style="text;html=1;strokeColor=none;fillColor=none;align=center;verticalAlign=middle;whiteSpace=wrap;rounded=0;" vertex="1" parent="1">
          <mxGeometry x="267" y="481" width="90" height="38" as="geometry" />
        </mxCell>
        <mxCell id="-BZDDZaDFFfkxx9SQDAJ-83" value="&lt;font style=&quot;font-size: 14px;&quot;&gt;redis&lt;/font&gt;" style="rounded=1;whiteSpace=wrap;html=1;fillColor=#fff2cc;strokeColor=#d6b656;" vertex="1" parent="1">
          <mxGeometry x="373" y="479" width="108" height="40" as="geometry" />
        </mxCell>
        <mxCell id="-BZDDZaDFFfkxx9SQDAJ-84" value="&lt;font style=&quot;font-size: 14px;&quot;&gt;DB数据库配置&lt;/font&gt;" style="rounded=1;whiteSpace=wrap;html=1;fillColor=#fff2cc;strokeColor=#d6b656;" vertex="1" parent="1">
          <mxGeometry x="497" y="479" width="108" height="40" as="geometry" />
        </mxCell>
        <mxCell id="-BZDDZaDFFfkxx9SQDAJ-85" value="&lt;font style=&quot;font-size: 14px;&quot;&gt;加解密配置（md5）&lt;/font&gt;" style="rounded=1;whiteSpace=wrap;html=1;fillColor=#fff2cc;strokeColor=#d6b656;" vertex="1" parent="1">
          <mxGeometry x="627" y="479" width="108" height="40" as="geometry" />
        </mxCell>
        <mxCell id="-BZDDZaDFFfkxx9SQDAJ-86" value="" style="rounded=0;whiteSpace=wrap;html=1;dashed=1;strokeWidth=2;strokeColor=#0000FF;" vertex="1" parent="1">
          <mxGeometry x="257" y="545" width="520" height="60" as="geometry" />
        </mxCell>
        <mxCell id="-BZDDZaDFFfkxx9SQDAJ-87" value="&lt;span style=&quot;font-size: 15px;&quot;&gt;&lt;b&gt;依赖包配置&lt;/b&gt;&lt;/span&gt;" style="text;html=1;strokeColor=none;fillColor=none;align=center;verticalAlign=middle;whiteSpace=wrap;rounded=0;" vertex="1" parent="1">
          <mxGeometry x="267" y="556" width="90" height="38" as="geometry" />
        </mxCell>
        <mxCell id="-BZDDZaDFFfkxx9SQDAJ-88" value="&lt;span style=&quot;font-size: 14px;&quot;&gt;Maven&lt;/span&gt;" style="rounded=1;whiteSpace=wrap;html=1;fillColor=#fff2cc;strokeColor=#d6b656;" vertex="1" parent="1">
          <mxGeometry x="373" y="554" width="108" height="40" as="geometry" />
        </mxCell>
        <mxCell id="-BZDDZaDFFfkxx9SQDAJ-89" value="&lt;span style=&quot;font-size: 14px;&quot;&gt;JDK&lt;/span&gt;" style="rounded=1;whiteSpace=wrap;html=1;fillColor=#fff2cc;strokeColor=#d6b656;" vertex="1" parent="1">
          <mxGeometry x="497" y="554" width="108" height="40" as="geometry" />
        </mxCell>
        <mxCell id="-BZDDZaDFFfkxx9SQDAJ-90" value="" style="rounded=0;whiteSpace=wrap;html=1;" vertex="1" parent="1">
          <mxGeometry x="187" y="630" width="600" height="160" as="geometry" />
        </mxCell>
        <mxCell id="-BZDDZaDFFfkxx9SQDAJ-91" value="&lt;span style=&quot;font-size: 17px;&quot;&gt;&lt;b&gt;核心模块&lt;/b&gt;&lt;/span&gt;" style="text;html=1;strokeColor=none;fillColor=none;align=center;verticalAlign=middle;whiteSpace=wrap;rounded=0;" vertex="1" parent="1">
          <mxGeometry x="207" y="640" width="17" height="130" as="geometry" />
        </mxCell>
        <mxCell id="-BZDDZaDFFfkxx9SQDAJ-92" value="" style="rounded=0;whiteSpace=wrap;html=1;dashed=1;strokeWidth=2;strokeColor=#0000FF;" vertex="1" parent="1">
          <mxGeometry x="257" y="640" width="520" height="60" as="geometry" />
        </mxCell>
        <mxCell id="-BZDDZaDFFfkxx9SQDAJ-93" value="&lt;span style=&quot;font-size: 15px;&quot;&gt;&lt;b&gt;报表查询&lt;/b&gt;&lt;/span&gt;" style="text;html=1;strokeColor=none;fillColor=none;align=center;verticalAlign=middle;whiteSpace=wrap;rounded=0;" vertex="1" parent="1">
          <mxGeometry x="267" y="651" width="90" height="38" as="geometry" />
        </mxCell>
        <mxCell id="-BZDDZaDFFfkxx9SQDAJ-94" value="&lt;span style=&quot;font-size: 14px;&quot;&gt;Controller控制器&lt;/span&gt;" style="rounded=1;whiteSpace=wrap;html=1;fillColor=#fff2cc;strokeColor=#d6b656;" vertex="1" parent="1">
          <mxGeometry x="97" y="920" width="108" height="40" as="geometry" />
        </mxCell>
        <mxCell id="-BZDDZaDFFfkxx9SQDAJ-95" value="&lt;span style=&quot;font-size: 14px;&quot;&gt;service服务（条件查询）&lt;/span&gt;" style="rounded=1;whiteSpace=wrap;html=1;fillColor=#fff2cc;strokeColor=#d6b656;" vertex="1" parent="1">
          <mxGeometry x="497" y="649" width="108" height="40" as="geometry" />
        </mxCell>
        <mxCell id="-BZDDZaDFFfkxx9SQDAJ-96" value="" style="rounded=0;whiteSpace=wrap;html=1;dashed=1;strokeWidth=2;strokeColor=#0000FF;" vertex="1" parent="1">
          <mxGeometry x="257" y="720" width="520" height="60" as="geometry" />
        </mxCell>
        <mxCell id="-BZDDZaDFFfkxx9SQDAJ-97" value="&lt;span style=&quot;font-size: 15px;&quot;&gt;&lt;b&gt;登录控制&lt;/b&gt;&lt;/span&gt;" style="text;html=1;strokeColor=none;fillColor=none;align=center;verticalAlign=middle;whiteSpace=wrap;rounded=0;" vertex="1" parent="1">
          <mxGeometry x="267" y="731" width="90" height="38" as="geometry" />
        </mxCell>
        <mxCell id="-BZDDZaDFFfkxx9SQDAJ-98" value="&lt;span style=&quot;font-size: 14px;&quot;&gt;单点登录问题&lt;/span&gt;" style="rounded=1;whiteSpace=wrap;html=1;fillColor=#fff2cc;strokeColor=#d6b656;" vertex="1" parent="1">
          <mxGeometry x="373" y="729" width="108" height="40" as="geometry" />
        </mxCell>
        <mxCell id="-BZDDZaDFFfkxx9SQDAJ-99" value="&lt;span style=&quot;font-size: 14px;&quot;&gt;Mapper，Entity&lt;/span&gt;" style="rounded=1;whiteSpace=wrap;html=1;fillColor=#fff2cc;strokeColor=#d6b656;" vertex="1" parent="1">
          <mxGeometry x="627" y="649" width="108" height="40" as="geometry" />
        </mxCell>
        <mxCell id="-BZDDZaDFFfkxx9SQDAJ-100" value="" style="rounded=0;whiteSpace=wrap;html=1;strokeColor=#1298FF;strokeWidth=2;" vertex="1" parent="1">
          <mxGeometry x="17" y="840" width="810" height="140" as="geometry" />
        </mxCell>
        <mxCell id="-BZDDZaDFFfkxx9SQDAJ-101" value="&lt;font size=&quot;1&quot; style=&quot;&quot;&gt;&lt;b style=&quot;font-size: 17px;&quot;&gt;数据源&lt;/b&gt;&lt;/font&gt;" style="text;html=1;strokeColor=none;fillColor=none;align=center;verticalAlign=middle;whiteSpace=wrap;rounded=0;" vertex="1" parent="1">
          <mxGeometry x="40" y="835" width="17" height="130" as="geometry" />
        </mxCell>
        <mxCell id="-BZDDZaDFFfkxx9SQDAJ-102" value="外部数据" style="rounded=1;whiteSpace=wrap;html=1;fillColor=#dae8fc;strokeColor=#6c8ebf;" vertex="1" parent="1">
          <mxGeometry x="517" y="865" width="120" height="60" as="geometry" />
        </mxCell>
        <mxCell id="-BZDDZaDFFfkxx9SQDAJ-103" value="&lt;font style=&quot;font-size: 15px;&quot;&gt;&lt;b&gt;爬虫爬取&lt;/b&gt;&lt;/font&gt;" style="edgeStyle=orthogonalEdgeStyle;rounded=0;orthogonalLoop=1;jettySize=auto;html=1;elbow=vertical;entryX=0.929;entryY=1.117;entryDx=0;entryDy=0;entryPerimeter=0;exitX=1;exitY=0.25;exitDx=0;exitDy=0;strokeColor=#000066;strokeWidth=2;" edge="1" parent="1" source="-BZDDZaDFFfkxx9SQDAJ-102" target="-BZDDZaDFFfkxx9SQDAJ-102">
          <mxGeometry x="-0.0038" relative="1" as="geometry">
            <mxPoint as="offset" />
          </mxGeometry>
        </mxCell>
        <mxCell id="-BZDDZaDFFfkxx9SQDAJ-104" value="" style="shape=flexArrow;endArrow=classic;startArrow=classic;html=1;rounded=0;entryX=0;entryY=0.5;entryDx=0;entryDy=0;strokeColor=#331A00;strokeWidth=3;exitX=1.02;exitY=0.525;exitDx=0;exitDy=0;exitPerimeter=0;" edge="1" parent="1" source="-BZDDZaDFFfkxx9SQDAJ-115" target="-BZDDZaDFFfkxx9SQDAJ-102">
          <mxGeometry width="100" height="100" relative="1" as="geometry">
            <mxPoint x="467" y="890" as="sourcePoint" />
            <mxPoint x="547" y="890" as="targetPoint" />
          </mxGeometry>
        </mxCell>
        <mxCell id="-BZDDZaDFFfkxx9SQDAJ-105" value="&lt;font style=&quot;font-size: 15px;&quot;&gt;&lt;b&gt;数据拉手&lt;/b&gt;&lt;/font&gt;" style="edgeLabel;html=1;align=center;verticalAlign=middle;resizable=0;points=[];" vertex="1" connectable="0" parent="-BZDDZaDFFfkxx9SQDAJ-104">
          <mxGeometry x="0.0608" y="-2" relative="1" as="geometry">
            <mxPoint x="-4" y="-9" as="offset" />
          </mxGeometry>
        </mxCell>
        <mxCell id="-BZDDZaDFFfkxx9SQDAJ-106" value="PG库" style="image;aspect=fixed;html=1;points=[];align=center;fontSize=12;image=img/lib/azure2/databases/Azure_Database_PostgreSQL_Server.svg;" vertex="1" parent="1">
          <mxGeometry x="175.25" y="860" width="48.75" height="65" as="geometry" />
        </mxCell>
        <mxCell id="-BZDDZaDFFfkxx9SQDAJ-107" value="" style="outlineConnect=0;dashed=0;verticalLabelPosition=bottom;verticalAlign=top;align=center;html=1;shape=mxgraph.aws3.toolkit_for_visual_studio;fillColor=#53B1CB;gradientColor=none;" vertex="1" parent="1">
          <mxGeometry x="685" y="892" width="50" height="58" as="geometry" />
        </mxCell>
        <mxCell id="-BZDDZaDFFfkxx9SQDAJ-108" value="&lt;span style=&quot;font-size: 14px;&quot;&gt;Controller控制器&lt;/span&gt;" style="rounded=1;whiteSpace=wrap;html=1;fillColor=#fff2cc;strokeColor=#d6b656;" vertex="1" parent="1">
          <mxGeometry x="367" y="650" width="108" height="40" as="geometry" />
        </mxCell>
        <mxCell id="-BZDDZaDFFfkxx9SQDAJ-109" value="" style="shape=flexArrow;endArrow=classic;startArrow=classic;html=1;rounded=0;strokeColor=#FF9999;strokeWidth=3;" edge="1" parent="1">
          <mxGeometry width="100" height="100" relative="1" as="geometry">
            <mxPoint x="664.4963667820068" y="805" as="sourcePoint" />
            <mxPoint x="665" y="865" as="targetPoint" />
          </mxGeometry>
        </mxCell>
        <mxCell id="-BZDDZaDFFfkxx9SQDAJ-110" value="小B客户" style="whiteSpace=wrap;html=1;fillColor=#f8cecc;strokeColor=#b85450;rounded=1;" vertex="1" parent="1">
          <mxGeometry x="357" y="290" width="52" height="30" as="geometry" />
        </mxCell>
        <mxCell id="-BZDDZaDFFfkxx9SQDAJ-111" value="规上客户" style="whiteSpace=wrap;html=1;fillColor=#f8cecc;strokeColor=#b85450;rounded=1;" vertex="1" parent="1">
          <mxGeometry x="423" y="290" width="52" height="30" as="geometry" />
        </mxCell>
        <mxCell id="-BZDDZaDFFfkxx9SQDAJ-112" value="酒店类客户" style="whiteSpace=wrap;html=1;fillColor=#f8cecc;strokeColor=#b85450;rounded=1;" vertex="1" parent="1">
          <mxGeometry x="484.5" y="290" width="60" height="30" as="geometry" />
        </mxCell>
        <mxCell id="-BZDDZaDFFfkxx9SQDAJ-113" value="直播类客户" style="whiteSpace=wrap;html=1;fillColor=#f8cecc;strokeColor=#b85450;rounded=1;" vertex="1" parent="1">
          <mxGeometry x="564.5" y="290" width="62.5" height="30" as="geometry" />
        </mxCell>
        <mxCell id="-BZDDZaDFFfkxx9SQDAJ-114" value="连锁品牌类客户" style="whiteSpace=wrap;html=1;fillColor=#f8cecc;strokeColor=#b85450;rounded=1;" vertex="1" parent="1">
          <mxGeometry x="647" y="290" width="80" height="30" as="geometry" />
        </mxCell>
        <mxCell id="-BZDDZaDFFfkxx9SQDAJ-115" value="CDAP" style="html=1;verticalLabelPosition=bottom;align=center;labelBackgroundColor=#ffffff;verticalAlign=top;strokeWidth=2;strokeColor=#0080F0;shadow=0;dashed=0;shape=mxgraph.ios7.icons.data;" vertex="1" parent="1">
          <mxGeometry x="337" y="862.5" width="50" height="60" as="geometry" />
        </mxCell>
        <mxCell id="-BZDDZaDFFfkxx9SQDAJ-116" value="" style="shape=flexArrow;endArrow=classic;startArrow=classic;html=1;rounded=0;entryX=0.02;entryY=0.5;entryDx=0;entryDy=0;entryPerimeter=0;strokeWidth=3;strokeColor=#331A00;width=13;startSize=5.67;" edge="1" parent="1" target="-BZDDZaDFFfkxx9SQDAJ-115">
          <mxGeometry width="100" height="100" relative="1" as="geometry">
            <mxPoint x="224" y="893" as="sourcePoint" />
            <mxPoint x="347" y="850" as="targetPoint" />
          </mxGeometry>
        </mxCell>
        <mxCell id="-BZDDZaDFFfkxx9SQDAJ-117" value="数据入库" style="edgeLabel;html=1;align=center;verticalAlign=middle;resizable=0;points=[];fontSize=15;fontStyle=1" vertex="1" connectable="0" parent="-BZDDZaDFFfkxx9SQDAJ-116">
          <mxGeometry x="-0.045" y="2" relative="1" as="geometry">
            <mxPoint x="2" y="-8" as="offset" />
          </mxGeometry>
        </mxCell>
        <mxCell id="-BZDDZaDFFfkxx9SQDAJ-118" value="&lt;font style=&quot;font-size: 15px;&quot;&gt;&lt;b&gt;二次打标（规划中）&lt;/b&gt;&lt;/font&gt;" style="text;html=1;strokeColor=none;fillColor=none;align=center;verticalAlign=middle;whiteSpace=wrap;rounded=0;" vertex="1" parent="1">
          <mxGeometry x="237" y="906" width="80" height="30" as="geometry" />
        </mxCell>
      </root>
    </mxGraphModel>
  </diagram>
</mxfile>
